<?xml version="1.0" encoding="utf-8"?>
<!-- Generator: Adobe Illustrator 26.1.0, SVG Export Plug-In . SVG Version: 6.00 Build 0)  -->
<svg version="1.1" id="Layer_1" xmlns="http://www.w3.org/2000/svg" xmlns:xlink="http://www.w3.org/1999/xlink" x="0px" y="0px"
	 viewBox="0 0 484.5 60.3" style="enable-background:new 0 0 484.5 60.3;" xml:space="preserve">
<style type="text/css">
	.st0{fill:#306445;}
</style>
<path class="st0" d="M0.4,37.3V26.5c0-4.3,1-8.3,3.1-11.7c2.1-3.5,5.1-6.2,9-8.3c3.9-2,8.5-3,13.6-3c3.2,0,6.2,0.4,8.9,1.3
	c2.7,0.8,5,1.9,6.7,3.3c1.7,1.3,3.1,2.7,4,4.2c1,1.5,1.4,2.9,1.4,4.3c0,2.2-0.7,3.9-2.1,5.1c-1.4,1.2-3.5,1.8-6.3,1.8
	c-1.1,0-2.2-0.2-3.1-0.5c-0.9-0.4-1.7-0.8-2.4-1.3s-1.3-1.1-2-1.6c-0.6-0.5-1.4-1-2.3-1.3C28,18.5,27,18.3,26,18.3
	c-2.5,0-4.5,0.8-6.1,2.3c-1.6,1.6-2.3,3.6-2.3,6.1v10.7c0,2.5,0.8,4.5,2.3,6.1c1.6,1.6,3.6,2.3,6.1,2.3c1.2,0,2.5-0.2,3.7-0.6
	c1.2-0.4,2.1-0.8,2.7-1.1l0.9-0.6v-3.1H31c-2.3,0-4.1-0.7-5.5-2s-2.1-3-2.1-4.9c0-1.9,0.7-3.6,2.1-4.9s3.3-2,5.5-2h10.7
	c4.6,0,6.9,2.3,6.9,6.9v13.8c0,1.4-0.5,2.8-1.6,4.3c-1,1.5-2.5,2.9-4.4,4.2s-4.3,2.4-7.2,3.2s-6.1,1.3-9.5,1.3
	c-3.8,0-7.4-0.6-10.6-1.8s-5.9-2.8-8.1-4.9c-2.2-2.1-3.9-4.5-5.1-7.3C1,43.6,0.4,40.5,0.4,37.3z"/>
<path class="st0" d="M54.9,37.3V26.5c0-4.3,1-8.3,3.1-11.7c2.1-3.5,5.1-6.2,9-8.3c3.9-2,8.4-3,13.5-3s9.6,1,13.6,3.1
	c3.9,2,6.9,4.8,9,8.3s3.1,7.4,3.1,11.7v10.7c0,3.2-0.6,6.3-1.8,9.1c-1.2,2.8-2.9,5.2-5.1,7.3s-4.9,3.7-8.1,4.9s-6.8,1.8-10.6,1.8
	c-3.8,0-7.4-0.6-10.6-1.8s-5.9-2.8-8.1-4.9c-2.2-2.1-3.9-4.5-5.1-7.3C55.5,43.6,54.9,40.5,54.9,37.3z M72.1,37.3
	c0,3,0.8,5.4,2.4,7.2s3.6,2.7,6,2.7s4.4-0.9,6-2.7s2.4-4.2,2.4-7.2V26.5c0-3-0.8-5.4-2.4-7.2c-1.6-1.8-3.6-2.7-6-2.7s-4.4,0.9-6,2.7
	c-1.6,1.8-2.4,4.2-2.4,7.2V37.3z"/>
<path class="st0" d="M112.4,37.3V26.5c0-4.3,1-8.3,3.1-11.7c2.1-3.5,5.1-6.2,9-8.3c3.9-2,8.5-3,13.6-3c5.1,0,9.6,1,13.6,3.1
	c3.9,2,6.9,4.8,9,8.3s3.1,7.4,3.1,11.7v10.7c0,3.2-0.6,6.3-1.8,9.1c-1.2,2.8-2.9,5.2-5.1,7.3c-2.2,2.1-4.9,3.7-8.1,4.9
	c-3.2,1.2-6.8,1.8-10.6,1.8s-7.4-0.6-10.6-1.8c-3.2-1.2-5.9-2.8-8.1-4.9c-2.2-2.1-3.9-4.5-5.1-7.3C113,43.6,112.4,40.5,112.4,37.3z
	 M129.6,37.3c0,3,0.8,5.4,2.4,7.2c1.6,1.8,3.6,2.7,6,2.7s4.4-0.9,6-2.7s2.4-4.2,2.4-7.2V26.5c0-3-0.8-5.4-2.4-7.2
	c-1.6-1.8-3.6-2.7-6-2.7s-4.4,0.9-6,2.7c-1.6,1.8-2.4,4.2-2.4,7.2V37.3z"/>
<path class="st0" d="M171.8,51.1V12.7c0-2.3,0.7-4.2,2.2-5.6s3.6-2.1,6.2-2.1h13.4c4,0,7.7,0.6,11.1,1.8c3.3,1.2,6.1,2.8,8.4,4.9
	c2.2,2.1,4,4.5,5.2,7.3s1.8,5.8,1.8,9.1v7.7c0,3.2-0.6,6.3-1.8,9.1c-1.2,2.8-3,5.2-5.2,7.3s-5,3.7-8.4,4.8c-3.3,1.2-7,1.8-11.1,1.8
	h-13.4c-2.6,0-4.7-0.7-6.2-2.1C172.6,55.3,171.8,53.4,171.8,51.1z M188.7,44.9h5c2.7,0,4.9-0.9,6.6-2.6c1.7-1.7,2.6-3.9,2.6-6.6V28
	c0-2.7-0.9-4.9-2.6-6.6c-1.7-1.7-3.9-2.6-6.6-2.6h-5V44.9z"/>
<path class="st0" d="M244.2,45.3c0-2.2,0.7-3.9,2.1-5.1c1.4-1.2,3.5-1.8,6.3-1.8c1.1,0,2.2,0.2,3.1,0.6c0.9,0.4,1.7,0.8,2.4,1.3
	c0.7,0.5,1.4,1,2.1,1.6c0.7,0.5,1.5,1,2.5,1.3c1,0.4,2.1,0.6,3.3,0.6c2.7,0,4.6-0.4,5.8-1.1c1.2-0.7,1.8-1.7,1.8-2.8
	c0-0.5-0.3-0.9-1-1.3c-0.6-0.4-1.5-0.7-2.6-1s-2.4-0.6-3.8-1c-1.4-0.3-2.9-0.7-4.5-1.2c-1.6-0.4-3.1-0.9-4.7-1.5s-3.1-1.3-4.5-2.2
	c-1.4-0.9-2.7-1.9-3.8-3s-2-2.5-2.6-4.1c-0.6-1.6-1-3.4-1-5.4c0-2.5,0.5-4.8,1.5-7c1-2.1,2.4-4,4.3-5.6c1.9-1.6,4.3-2.8,7.2-3.7
	c3-0.9,6.3-1.3,10.1-1.3c3.2,0,6.2,0.4,8.9,1.3c2.7,0.8,5,1.9,6.7,3.3c1.7,1.3,3.1,2.7,4,4.2c1,1.5,1.4,2.9,1.4,4.3
	c0,2.2-0.7,3.9-2.1,5.1s-3.5,1.8-6.3,1.8c-1.1,0-2.2-0.2-3.1-0.5c-0.9-0.4-1.7-0.8-2.4-1.3c-0.7-0.5-1.3-1.1-2-1.6
	c-0.6-0.5-1.4-1-2.3-1.3c-0.9-0.4-1.9-0.5-2.9-0.5c-1.8,0-3.1,0.3-4,0.9s-1.3,1.3-1.3,2.2c0,0.6,0.4,1.2,1.2,1.7
	c0.8,0.5,1.9,0.9,3.2,1.3c1.3,0.4,2.9,0.8,4.6,1.3c1.7,0.5,3.4,1,5.2,1.5c1.8,0.5,3.5,1.2,5.2,2.1c1.7,0.9,3.2,1.9,4.6,3
	c1.3,1.1,2.4,2.5,3.2,4.2c0.8,1.7,1.2,3.6,1.2,5.7c0,2.5-0.5,4.9-1.6,7.1s-2.6,4.2-4.7,5.9c-2,1.7-4.7,3.1-8,4c-3.3,1-7,1.5-11,1.5
	c-3.4,0-6.5-0.4-9.3-1.3c-2.9-0.8-5.2-1.9-6.9-3.2c-1.7-1.3-3.1-2.7-4.1-4.2C244.7,48.1,244.2,46.6,244.2,45.3z"/>
<path class="st0" d="M295.5,35.3V24.6c0-4.3,1-8.3,3.1-11.7c2.1-3.5,5.1-6.2,9-8.3c3.9-2,8.5-3.1,13.6-3.1c5.1,0,9.6,1,13.6,3.1
	c3.9,2,6.9,4.8,9,8.3c2.1,3.5,3.1,7.4,3.1,11.7v10.7c0,3.2-0.6,6.3-1.8,9.1c-1.2,2.8-2.9,5.2-5.1,7.3c-2.2,2.1-4.9,3.7-8.1,4.9
	c-3.2,1.2-6.8,1.8-10.6,1.8c-3.8,0-7.4-0.6-10.6-1.8c-3.2-1.2-5.9-2.8-8.1-4.9c-2.2-2.1-3.9-4.5-5.1-7.3
	C296.2,41.6,295.5,38.5,295.5,35.3z M312.8,35.3c0,3,0.8,5.4,2.4,7.2c1.6,1.8,3.6,2.7,6,2.7c2.4,0,4.4-0.9,6-2.7
	c1.6-1.8,2.4-4.2,2.4-7.2V24.6c0-3-0.8-5.4-2.4-7.2c-1.6-1.8-3.6-2.7-6-2.7c-2.4,0-4.4,0.9-6,2.7c-1.6,1.8-2.4,4.2-2.4,7.2V35.3z"/>
<path class="st0" d="M355,49.9V10.7c0-2.3,0.7-4.2,2.2-5.6s3.6-2.1,6.2-2.1h29.2c2.6,0,4.7,0.7,6.2,2.1s2.2,3.3,2.2,5.6
	c0,2.3-0.7,4.2-2.2,5.6s-3.6,2.1-6.2,2.1h-20.7v6.1h11.5c2.6,0,4.7,0.7,6.2,2.1s2.2,3.3,2.2,5.6c0,2.3-0.7,4.2-2.2,5.6
	s-3.6,2.1-6.2,2.1h-11.5v10c0,2.3-0.7,4.2-2.2,5.6s-3.6,2.1-6.2,2.1s-4.7-0.7-6.2-2.1C355.7,54,355,52.2,355,49.9z"/>
<path class="st0" d="M397.9,49.9c0-0.7,0.2-1.6,0.5-2.8c0.3-1.2,0.6-2.1,1-2.9l0.5-1.2l12.3-32.2c1.2-3.1,2.9-5.4,4.9-6.9
	s4.9-2.3,8.5-2.3c3.7,0,6.5,0.8,8.6,2.3s3.7,3.8,4.8,6.9L451.2,43c1.3,3.1,1.9,5.4,1.9,6.9c0,2.1-0.8,4-2.4,5.4
	c-1.6,1.5-3.6,2.2-6.1,2.2c-4,0-7.1-2.5-9.2-7.6l-1.9-4.6h-16.1l-1.9,4.6c-2.1,5.1-5.2,7.6-9.2,7.6c-2.4,0-4.5-0.7-6-2.2
	C398.7,53.8,397.9,52,397.9,49.9z M420.9,31.4h9.2l-4.2-11.5h-0.8L420.9,31.4z"/>
<circle class="st0" cx="473.5" cy="47.9" r="9.6"/>
</svg>
